<?xml version="1.0" encoding="utf-8"?>
<!-- Generator: Adobe Illustrator 18.0.0, SVG Export Plug-In . SVG Version: 6.00 Build 0)  -->
<!DOCTYPE svg PUBLIC "-//W3C//DTD SVG 1.1//EN" "http://www.w3.org/Graphics/SVG/1.1/DTD/svg11.dtd">
<svg version="1.1" id="Слой_2" xmlns="http://www.w3.org/2000/svg" xmlns:xlink="http://www.w3.org/1999/xlink" x="0px" y="0px"
	 viewBox="244 259 1095 1198" enable-background="new 244 259 1095 1198" xml:space="preserve">
<path fill="none" stroke="#000000" stroke-width="2" stroke-miterlimit="10" d="M845.1,468.2c12.1-3.7,22.3-16.7,31.6-17.7
	c9.3-0.9,18.6,9.3,25.1,0s10.2-13.9,18.6-15.8c8.4-1.9,19.5-4.6,25.1-7.4c5.6-2.8,11.2-6.5,19.5-4.6c8.4,1.9,19.5,10.2,30.7,9.3
	c11.2-0.9,12.1-5.6,18.6-3.7c6.5,1.9,13,7.4,19.5,0.9c6.5-6.5,11.2-10.2,22.3-19.5c11.2-9.3,38-36.3,52.9-48.2
	c14.9-12.1,28.8-20.5,46.4-27s33.5-22.3,45.6-25.1s54.8-18.6,67.8-23.2c13-4.6,53.8-21.4,53.8-21.4l8.4,440.2c0,0-7.4,7.4-12.1,7.4
	c-4.6,0-8.4-7.4-15.8,0c-7.4,7.4-6.5,13.9,0.9,29.8c7.4,15.9,9.3,19.5,7.4,27c-1.9,7.5-2.8,14.9-2.8,14.9l-3.7,3.7
	c0,0,6.5,0.9,6.5,13c0,12.1,6.5,5.6,1.9,16.7c-4.6,11.2-0.9,14.4-7.4,16.9c-6.5,2.5-6.5,3.4-7.4,12.3c-0.9,8.9-5.6,8.8-9.3,20
	s1.9,17.7-1.9,19.5c-3.8,1.8-7.4,4.6-6.5,9.3c0.9,4.6,3.7,21.4,0.9,28.8c-2.8,7.4-7.4,13.9-5.6,19.5c1.8,5.6-2.8,5.6-6.5,4.6
	c-3.7-0.9-1.9,2.8-0.9,7.4c0.9,4.6-5.6,10.2-5.6,10.2s-3.7,9.3-2.8,18.6c0.9,9.3-6.5,6.5-9.3,8.4s4.6,14.9,6.5,19.5
	c1.9,4.6-5.6,3.7-6.5,13c-0.9,9.3-1.9,22.3-9.3,22.3c-7.4,0-30.7,16.3-40,28.4c-9.3,12.1-13.9,22.8-13.9,27.4c0,4.6-9.3-9.3-13,0
	c-3.7,9.3-8.4,15.8-10.2,19.5c0,0-12.3-2.3-16.7,0c-8.4,4.6-18.1,17.9-21.4,17.7c-9.3-0.9-7.4-12.1-11.2-18.6
	c-3.7-6.5-10.2-8.4-14.9-2.8c-4.6,5.6-12.6,12.1-18.6,16.7c-6,4.6-5.6,27-5.6,27s-6.5-1.4-19.5-1.4s-12.1,9.8-12.1,13.5
	s-6.6,5.2-10.2,9.3c-9.3,10.2,2.8,25.1-1.9,33.5c-4.6,8.4-10.2,10.2-13.9,8.4c-3.7-1.9-2.8,9.3,1.9,13.9c4.7,4.6,8.4,13,5.6,16.7
	c-2.8,3.7,1.9,14.9,1.9,17.7c0,2.8-9.3,1.4-13.9-1.4c-4.6-2.8-4.6,6-9.3,12.6c-4.7,6.6-11.6,9.8-15.8,5.6
	c-8.4-8.4,3.7-10.2,3.7-13.9c0-3.7-1.9-14.9-6.5-19.5c-4.6-4.6-8.4-0.9-12.1-4.6c-3.7-3.7-4.6-12.1-10.2-11.2s-8.4,13-8.4,13
	s-8.4,4.6-13.9,15.8c-5.6,11.2-11.2,18.2-10.2,22.1c0.9,3.9,2.8,11.3-0.9,16c-3.7,4.6-14.9,3.7-16.7,9.3c-1.9,5.6,6.5,12.1,6.5,21.4
	s0,18.6,2.8,27c2.8,8.4,2.8,14.9-0.9,18.6c-3.7,3.7-9.3-4.6-16.7,0s-8.4,9.3-11.2,26c-2.8,16.7-4.6,25.1-18.6,27
	c-13.9,1.9-29.3,9.9-38,10.2c-21.4,0.6-21.4,0.6-21.4-15.8c0-12.5-12.1-8.4-18.6-17.7c-6.5-9.3-6.5-13-23.2-14.9s-27-16.7-27-26
	s2.8-13.9,0-20.5c-2.8-6.6,7.4-18.6,0-18.6s-19.5,5.6-25.1,9.3c-5.6,3.7-10.2-4.6-14.9,0c-4.6,4.6-9.3,11.2-16.7,15.8
	c-7.4,4.6-6.5,12.1-12.1,17.7c-5.6,5.6-18.6,0-25.1,0c-6.5,0-10.2,8.4-14.9,8.4c-4.6,0-6.5-13.9-13-17.7c-6.5-3.7-16.7-5.6-26-9.3
	c-9.3-3.7-13-12.1-20.5-8.4c-7.4,3.7-20.5-1.9-23.2,4.6c-2.8,6.5-2.8,18.6-9.3,19.5c-6.5,0.9-26-7.4-28.8-12.1
	c-2.8-4.7-1.9-14.9-7.4-14.9c-5.5,0-7.4-7.4-13.9-13.9c-6.5-6.5-10.2-5.6-19.5-10.2c-9.3-4.6-20.5-0.9-29.8,0
	c-9.3,0.9-40-9.3-44.5-14.9c-4.6-5.6,3.7-23.2-2.8-27.9c-6.5-4.6-13.9-16.7-14.9-33.5c-0.9-14.9-19.5-12.1-27-15.8
	c-7.4-3.7-4.6-19.5-7.4-22.3c-2.8-2.8-13,1.9-19.5,5.6c-6.5,3.7-10.7,0.9-16.3,5.6c-5.6,4.6-20-1.9-26.5-9.3
	c-6.5-7.4-8.4-18.6-12.1-16.7c-3.7,1.9-6.5,9.3-10.2,12.1s-11.2,3.7-11.2,3.7l26-852.5l318.5-9.3l4.6,1.9c-0.9,0.8,2.8-1.3,3.6-1.8
	c-0.5,8.9-7.9,14.9-13.1,21c-5.2,6.1-6,13.5-12.5,18.8c6.6-1.5,9.8-10.4,14.3-15.1c4.8-5.1,10.2-12,15.9-15.4
	c-0.3,1.3,0.5,3.2,0.4,4.3c5,2.2,24.2,5.7,24.9-3.2c2,2.2,4.6,3.2,7.4,3.6c0.4,0.5,0.4,1,0,1.5c-1.4,0.1-2.3,1-3.4,1.4
	c4.6,5.2,23.9,3.9,19.5,15.4c3.8,0.5,7.5,2.3,10.9,3.1c4.3,0.9,7.9,0.1,12.1,2c4.5,2,6.4,5.1,11.2,6.2c5,1.1,5.5,1.1,8.5,5.3
	c9.7,12.6,20.6,22.1,35.8,27c4.5-4.3,20.1-17.9,14.3-24.7c4.7-2.3,9.9-2.9,8.1,4.3c-7,0.4-3.8,7.5-7.1,10.9
	c4.1-2.8,6.9-7.1,10.8-9.7c0.5,1.3,4.2,4.3,4.1,5.5c-0.4,2.4-4.5,1.9-5.6,4.5c4.5,1.3,8.8-2,12.9-2.7c4.6-0.8,9.4,0.4,13.9,1.1
	c1.3,4.7-3.1,9.7-0.9,13.6c-4.7-1.4-6.1-1-11.1,0.1c-4.2,1-6.9,0.1-11.2,0c-4.7-0.1-6.2,1.9-10.2,2.8c-2,0.5-4.3-0.4-6.2,0.3
	c-1.5,0.4-2.4,2.3-3.8,2.7c-4.6,1-6.5-2.3-10.2-2.9c-4.6-0.8-5.5,1.9-8.7,4.5c-7.4,6-12.7,5.9-22,7c4.3,1.5,11.1,1.9,15.8,3.7
	c5.2,2,7.4,5.1,13.2,3.7c5.1-1.1,8.7-6.2,13.7-7.6c2.9-0.9,4.3-0.4,7.3-2c1.4-0.8,4.3-4.3,5.7-4.5c5.1-0.5,6.7,6.9,12.1,7.5
	c2.8,0.4,4.3-2.3,6.7-2.7c3.6-0.5,4.2,1.7,7.3,2.4c5.6,1.5,8.5,0.8,13,4.8c2.3,2,6.5,11.2,9.2,6.7c-4.3-4.6-7.9-8.8-8-14.9
	c8.7-2.3,12.7,9.2,16.8,14.5c2.9,3.7,4.7,6.4,9,8.4c4.1,1.9,8.4,2.7,11.2,5.9L845.1,468.2z"/>
</svg>
